<?xml version="1.0" standalone="no"?>
<!DOCTYPE svg PUBLIC "-//W3C//DTD SVG 20010904//EN"
 "http://www.w3.org/TR/2001/REC-SVG-20010904/DTD/svg10.dtd">
<svg version="1.0" xmlns="http://www.w3.org/2000/svg"
 width="500.000000pt" height="500.000000pt" viewBox="0 0 500.000000 500.000000"
 preserveAspectRatio="xMidYMid meet">

<g transform="translate(0.000000,500.000000) scale(0.100000,-0.100000)"
fill="#000000" stroke="none">
<path d="M1907 4150 c-54 -77 -102 -140 -107 -140 -8 0 -33 32 -82 104 -4 6
-50 11 -103 12 -81 1 -95 -1 -91 -13 5 -13 41 -65 144 -210 l32 -46 -23 -31
c-13 -17 -64 -87 -112 -156 -48 -69 -106 -149 -127 -178 -21 -29 -36 -57 -33
-62 7 -12 164 -13 182 -2 7 4 39 46 72 92 119 169 135 190 141 190 4 0 26 -27
50 -60 l43 -60 99 0 99 0 -22 33 c-13 17 -56 78 -96 134 l-74 102 113 158 c63
87 131 181 151 209 20 28 37 54 37 58 0 3 -44 6 -97 6 l-98 0 -98 -140z"/>
<path d="M2240 4287 c0 -2 72 -105 160 -228 l160 -224 0 -202 0 -203 23 -5
c13 -4 48 -5 78 -3 l54 3 5 205 5 205 72 100 c39 55 85 118 102 140 l30 40
-52 7 c-29 4 -74 5 -100 2 -45 -6 -52 -10 -92 -65 l-44 -59 -102 145 -102 145
-99 0 c-54 0 -98 -2 -98 -3z"/>
<path d="M2970 4210 l0 -80 135 0 c87 0 135 -4 135 -10 0 -6 -31 -90 -70 -186
-38 -97 -70 -178 -70 -180 0 -3 39 -3 87 -2 l87 3 57 140 c31 77 62 151 67
165 28 68 82 213 82 221 0 5 -111 9 -255 9 l-255 0 0 -80z"/>
<path d="M3023 3573 c-3 -10 -16 -44 -29 -77 -13 -32 -21 -62 -18 -67 7 -11
485 -12 502 0 9 5 12 29 10 82 l-3 74 -228 3 c-210 2 -228 1 -234 -15z"/>
<path d="M2410 3368 c-11 -18 -20 -37 -20 -41 0 -4 -59 -160 -131 -345 -167
-431 -168 -435 -222 -573 -25 -63 -84 -216 -132 -340 -47 -123 -90 -233 -95
-244 -5 -11 -61 -155 -124 -320 -64 -165 -154 -399 -201 -520 -47 -121 -85
-225 -85 -231 0 -21 30 -24 270 -24 178 0 240 3 248 13 5 6 21 46 35 87 14 41
55 161 92 265 82 232 171 487 334 954 33 96 63 176 66 179 2 3 7 -1 10 -9 13
-36 101 -287 140 -399 24 -69 54 -152 66 -185 44 -123 112 -313 143 -405 80
-231 170 -476 179 -487 14 -19 490 -18 506 0 8 10 -14 76 -90 273 -56 142
-153 392 -215 554 -63 162 -146 376 -185 475 -39 99 -93 239 -120 310 -28 72
-54 139 -60 150 -8 18 -78 199 -271 700 -38 99 -75 183 -81 187 -23 14 -37 8
-57 -24z"/>
</g>
</svg>
