<?xml version="1.0" ?>

<!-- Uploaded to: SVG Repo, www.svgrepo.com, Generator: SVG Repo Mixer Tools -->
<svg width="800px" height="800px" viewBox="0 0 32 32" id="svg5" version="1.1" xmlns="http://www.w3.org/2000/svg" xmlns:svg="http://www.w3.org/2000/svg">

<defs id="defs2"/>

<g id="layer1" transform="translate(-348,-340)">

<path d="m 364,359.01367 a 1,1 0 0 0 -1,1 v 2 a 1.0001,1.0001 0 0 0 1,1 h 2 a 1,1 0 0 0 1,-1 1,1 0 0 0 -1,-1 h -1 v -1 a 1,1 0 0 0 -1,-1 z" id="path453527" style="color:#000000;fill:#000000;fill-rule:evenodd;stroke-linecap:round;stroke-linejoin:round;stroke-miterlimit:4.1;-inkscape-stroke:none"/>

<path d="m 362,344.01367 c -3.85415,0 -7,3.14587 -7,7 a 1.0001,1.0001 0 0 0 0,0.01 c 5.7e-4,0.0637 0.0153,0.12587 0.0176,0.18945 -2.81915,0.48802 -5.01758,2.84696 -5.01758,5.80078 0,3.30186 2.69814,6 6,6 h 2.08594 c 0.47966,2.82907 2.95316,5 5.91406,5 2.9609,0 5.4344,-2.17093 5.91406,-5 H 373 c 2.74958,0 5,-2.25042 5,-5 0,-2.40455 -1.75451,-4.33294 -4.02539,-4.80273 0.003,-0.0639 0.0249,-0.12544 0.0254,-0.18946 a 1.0001,1.0001 0 0 0 0,-0.002 1.0001,1.0001 0 0 0 0,-0.002 1.0001,1.0001 0 0 0 0,-0.002 1.0001,1.0001 0 0 0 0,-0.002 c -2e-5,-2.74956 -2.25044,-4.99997 -5,-5 a 1.0001,1.0001 0 0 0 -0.008,0 c -0.24087,0.002 -0.46966,0.0849 -0.70703,0.1211 -1.12976,-2.45481 -3.53017,-4.12093 -6.28516,-4.1211 z m 0,2 c 2.19303,1.4e-4 4.12166,1.41974 4.77344,3.51367 a 1.0001,1.0001 0 0 0 1.27929,0.64844 c 0.3051,-0.1048 0.6266,-0.15925 0.94922,-0.16211 1.66712,0.001 2.99699,1.33093 2.99805,2.99805 v 0.002 c -0.002,0.25375 -0.0377,0.50471 -0.10352,0.75 a 1.0001,1.0001 0 0 0 1.05469,1.25586 c 0.0271,-0.002 0.0378,-0.003 0.0547,-0.004 1.66556,0.004 2.99414,1.33159 2.99414,2.99805 0,1.6687 -1.3313,3 -3,3 h -3.08594 c -0.47966,-2.82907 -2.95316,-5 -5.91406,-5 -2.9609,0 -5.4344,2.17093 -5.91406,5 H 356 c -2.22098,0 -4,-1.77902 -4,-4 0,-2.22097 1.77902,-4 4,-4 0.009,0 0.0308,9e-4 0.0645,0.002 a 1.0001,1.0001 0 0 0 1.01367,-1.17578 c -0.0489,-0.27344 -0.0752,-0.5493 -0.0781,-0.82617 v -0.002 c 0.001,-2.77234 2.2274,-4.99805 5,-4.99805 z m 2,12 c 2.22098,0 4,1.77902 4,4 0,2.22098 -1.77902,4 -4,4 -2.22098,0 -4,-1.77902 -4,-4 0,-2.22098 1.77902,-4 4,-4 z" id="path453505" style="color:#000000;fill:#000000;fill-rule:evenodd;stroke-linecap:round;stroke-linejoin:round;stroke-miterlimit:4.1;-inkscape-stroke:none"/>

</g>

</svg>